<?xml version="1.0" encoding="utf-8"?>
<!-- Generator: Adobe Illustrator 16.0.0, SVG Export Plug-In . SVG Version: 6.00 Build 0)  -->
<!DOCTYPE svg PUBLIC "-//W3C//DTD SVG 1.1//EN" "http://www.w3.org/Graphics/SVG/1.1/DTD/svg11.dtd">
<svg version="1.1" id="Layer_1" xmlns="http://www.w3.org/2000/svg" xmlns:xlink="http://www.w3.org/1999/xlink" x="0px" y="0px"
	 width="264px" height="58px" viewBox="0 0 264 58" enable-background="new 0 0 264 58" xml:space="preserve">
<g id="Logo_FM_1_">
	<path fill="#F82E3E" d="M53.919,13.566l-0.076-0.027l-0.014-0.08l-0.046-0.106c-0.074-0.1-0.085-0.115-0.177-0.17L32.915,4.321
		l-0.111-0.04L32.662,4.28l-0.257,0.061c-0.011,0.007-0.017,0.01-19.823,13.115l-0.121,0.101l-0.105,0.172
		c-0.015,0.032-0.03,0.061-0.074,0.158L8.298,33.373L8.284,33.5c-0.008,0.043-0.012,0.086-0.012,0.152l-0.002,0.035l0.01,0.035
		c0,0,0.031,0.121,0.057,0.186L21.788,50.15l0.115,0.102c0.121,0.08,0.181,0.088,0.17,0.082l0.898,0.199l-0.104-0.104l19.015,2.135
		l0.144,0.008l0.09-0.012l0.103-0.031l-0.101-0.229l0.165,0.201l0.079-0.049c0-0.002,0.078-0.074,0.139-0.129l11.854-14.07
		l0.002-0.006l0.004-0.006l0.002,0.002l-0.002-0.002l4.711-14.038l0.026-0.107c0.001,0,0.011-0.144,0.015-0.177l0.006-0.048
		L53.919,13.566z M57.847,23.986l-4.16,12.567l-3.895-4.424l3.736-16.59L57.847,23.986z M21.991,38.547L39.87,51.125l-1.932-0.332
		l-15.42-1.732L10.777,34.922L21.991,38.547z M21.395,36.975L9.62,33.168l3.518-13.671l6.326,9.168L21.395,36.975z M22.7,37.168
		l-1.995-8.584l11.249-11.808l20.553-2.283l-3.889,17.259L22.7,37.168z M31.094,15.836l-10.995,11.54l-6.324-9.169L31.956,6.188
		L31.094,15.836z M23.848,38.277l25.058-5.236l4.188,4.748L41.914,51.057L23.848,38.277z M32.362,15.399L33.21,5.87l17.538,7.487
		L32.362,15.399z"/>
	<g>
		<path fill="#FFFFFF" d="M65.036,38.475V18.62h12.92v1.287H66.462v7.886h9.761v1.23h-9.761v9.452H65.036z"/>
		<path fill="#FFFFFF" d="M94.876,37.188v1.286H81.647V18.62h12.977v1.287H83.073v7.802h10.096v1.23H83.073v8.25H94.876z"/>
		<path fill="#FFFFFF" d="M104.999,18.62h1.23l8.389,19.855h-1.51l-2.769-6.543h-9.479l-2.77,6.543h-1.537L104.999,18.62z
			 M109.948,30.757l-4.334-10.403l-4.419,10.403H109.948z"/>
		<path fill="#FFFFFF" d="M131.51,19.906h-7.271v18.568h-1.427V19.906h-7.271V18.62h15.968V19.906z"/>
		<path fill="#FFFFFF" d="M142.556,37.301c1.342,0,2.455-0.252,3.342-0.756c0.885-0.503,1.584-1.164,2.098-1.984
			c0.512-0.82,0.875-1.753,1.09-2.797s0.322-2.098,0.322-3.16V18.62h1.426v9.984c0,1.324-0.145,2.592-0.434,3.803
			c-0.289,1.213-0.76,2.279-1.412,3.203c-0.652,0.922-1.501,1.654-2.545,2.194c-1.045,0.541-2.33,0.812-3.859,0.812
			c-1.584,0-2.908-0.284-3.971-0.854c-1.062-0.568-1.916-1.323-2.559-2.266c-0.644-0.94-1.101-2.008-1.371-3.201
			c-0.27-1.193-0.405-2.423-0.405-3.691V18.62h1.427v9.984c0,1.1,0.107,2.172,0.321,3.216s0.587,1.972,1.118,2.782
			c0.531,0.812,1.235,1.465,2.111,1.958C140.132,37.054,141.231,37.301,142.556,37.301z"/>
		<path fill="#FFFFFF" d="M155.727,38.475V18.62h8.25c0.839,0,1.612,0.177,2.321,0.531c0.708,0.354,1.318,0.825,1.832,1.413
			c0.512,0.587,0.912,1.249,1.202,1.985c0.288,0.737,0.433,1.478,0.433,2.223c0,0.727-0.111,1.431-0.335,2.111
			c-0.224,0.681-0.541,1.292-0.95,1.832c-0.41,0.541-0.905,0.988-1.482,1.342c-0.578,0.354-1.213,0.587-1.902,0.699l4.95,7.718
			h-1.649l-4.811-7.494h-6.432v7.494H155.727z M157.153,29.666h6.963c0.634,0,1.212-0.14,1.734-0.419
			c0.521-0.28,0.969-0.647,1.342-1.104s0.657-0.979,0.854-1.566c0.195-0.587,0.293-1.188,0.293-1.804
			c0-0.633-0.116-1.244-0.35-1.832c-0.232-0.587-0.55-1.104-0.951-1.552c-0.4-0.447-0.866-0.806-1.397-1.077
			c-0.532-0.27-1.104-0.405-1.72-0.405h-6.768V29.666z"/>
		<path fill="#FFFFFF" d="M187.104,37.188v1.286h-13.229V18.62h12.977v1.287h-11.551v7.802h10.096v1.23h-10.096v8.25H187.104z"/>
		<path fill="#FFFFFF" d="M208.47,38.475V22.171l-7.244,12.612h-1.146l-7.242-12.612v16.303h-1.958V18.62h2.014l7.747,13.591
			l7.802-13.591h1.985v19.855H208.47z"/>
		<path fill="#FFFFFF" d="M215.404,38.475V18.62h1.958v19.855H215.404z"/>
		<path fill="#FFFFFF" d="M224.297,22.255v16.219h-1.958V18.62h1.511l13.144,16.528v-16.5h1.957v19.827h-1.705L224.297,22.255z"/>
		<path fill="#FFFFFF" d="M257.269,36.741v1.733h-13.34V18.62h13.088v1.734h-11.131v7.159h9.704v1.65h-9.704v7.579H257.269z"/>
	</g>
</g>
</svg>
