<?xml version="1.0" encoding="utf-8"?>
<!-- Generator: Adobe Illustrator 16.0.0, SVG Export Plug-In . SVG Version: 6.00 Build 0)  -->
<!DOCTYPE svg PUBLIC "-//W3C//DTD SVG 1.1//EN" "http://www.w3.org/Graphics/SVG/1.1/DTD/svg11.dtd">
<svg version="1.1" id="Capa_1" xmlns="http://www.w3.org/2000/svg" xmlns:xlink="http://www.w3.org/1999/xlink" x="0px" y="0px"
	 width="248.998px" height="48.291px" viewBox="0 0 248.998 48.291" enable-background="new 0 0 248.998 48.291"
	 xml:space="preserve">
<g id="Logo_FM">
	<g>
		<path fill="#D73240" d="M45.648,9.286l-0.076-0.027l-0.014-0.08l-0.045-0.106c-0.074-0.1-0.085-0.115-0.177-0.17L24.644,0.041
			l-0.111-0.04L24.392,0l-0.256,0.061c-0.011,0.007-0.017,0.01-19.824,13.115L4.19,13.277l-0.105,0.172
			c-0.014,0.032-0.03,0.061-0.074,0.158L0.028,29.093l-0.014,0.126c-0.007,0.044-0.011,0.087-0.012,0.153L0,29.406l0.009,0.036
			c0,0,0.031,0.122,0.057,0.187l13.452,16.242l0.116,0.102c0.12,0.079,0.18,0.087,0.169,0.082l0.898,0.199l-0.104-0.104
			l19.015,2.135l0.144,0.007l0.089-0.011l0.103-0.031l-0.101-0.229l0.166,0.203l0.079-0.05c0,0,0.079-0.073,0.14-0.128
			l11.853-14.071l0.003-0.005l0.003-0.005l0.001,0.001l-0.001-0.001l4.71-14.038l0.027-0.107c0,0,0.011-0.144,0.015-0.177
			l0.005-0.048L45.648,9.286z M49.577,19.706l-4.16,12.566l-3.895-4.424l3.736-16.589L49.577,19.706z M13.72,34.266L31.6,46.845
			l-1.932-0.332l-15.42-1.732L2.507,30.641L13.72,34.266z M13.124,32.693L1.35,28.887l3.517-13.67l6.326,9.168L13.124,32.693z
			 M14.43,32.887l-1.996-8.583l11.25-11.808l20.552-2.283l-3.889,17.258L14.43,32.887z M22.823,11.556l-10.995,11.54l-6.324-9.169
			L23.685,1.908L22.823,11.556z M15.577,33.998l25.057-5.237l4.188,4.749L33.644,46.776L15.577,33.998z M24.091,11.119L24.94,1.59
			l17.538,7.487L24.091,11.119z"/>
	</g>
	<g>
		<path fill="#FFFFFF" d="M56.766,34.195V14.339h12.92v1.287H58.192v7.886h9.76v1.23h-9.76v9.452H56.766z"/>
		<path fill="#FFFFFF" d="M86.605,32.908v1.287H73.377V14.339h12.976v1.287h-11.55v7.802h10.096v1.23H74.803v8.25H86.605z"/>
		<path fill="#FFFFFF" d="M96.728,14.339h1.23l8.39,19.855h-1.51l-2.769-6.544h-9.48l-2.769,6.544h-1.538L96.728,14.339z
			 M101.678,26.477l-4.335-10.403l-4.418,10.403H101.678z"/>
		<path fill="#FFFFFF" d="M123.239,15.626h-7.271v18.569h-1.426V15.626h-7.271v-1.287h15.968V15.626z"/>
		<path fill="#FFFFFF" d="M134.285,33.021c1.342,0,2.456-0.252,3.342-0.755c0.885-0.503,1.584-1.165,2.098-1.985
			c0.513-0.82,0.876-1.752,1.09-2.797c0.214-1.043,0.322-2.097,0.322-3.16v-9.984h1.426v9.984c0,1.324-0.145,2.591-0.434,3.803
			s-0.76,2.279-1.412,3.202c-0.653,0.923-1.501,1.654-2.545,2.195c-1.044,0.541-2.331,0.811-3.859,0.811
			c-1.584,0-2.908-0.284-3.971-0.853c-1.063-0.569-1.916-1.324-2.559-2.266c-0.643-0.941-1.1-2.008-1.37-3.202
			c-0.271-1.193-0.406-2.423-0.406-3.691v-9.984h1.426v9.984c0,1.1,0.107,2.172,0.322,3.216c0.214,1.044,0.587,1.972,1.119,2.783
			s1.235,1.464,2.111,1.958C131.861,32.773,132.961,33.021,134.285,33.021z"/>
		<path fill="#FFFFFF" d="M147.456,34.195V14.339h8.25c0.839,0,1.612,0.177,2.321,0.531c0.708,0.354,1.318,0.825,1.832,1.413
			c0.513,0.587,0.913,1.249,1.203,1.985c0.289,0.737,0.433,1.478,0.433,2.223c0,0.727-0.112,1.431-0.335,2.111
			c-0.224,0.681-0.541,1.292-0.951,1.832c-0.41,0.541-0.905,0.988-1.482,1.342c-0.578,0.354-1.212,0.587-1.901,0.699l4.95,7.718
			h-1.65l-4.81-7.495h-6.432v7.495H147.456z M148.882,25.386h6.963c0.634,0,1.212-0.14,1.734-0.419s0.969-0.647,1.342-1.104
			s0.657-0.979,0.853-1.566c0.196-0.587,0.294-1.188,0.294-1.804c0-0.633-0.117-1.244-0.35-1.832
			c-0.233-0.587-0.55-1.104-0.951-1.552c-0.401-0.447-0.867-0.806-1.398-1.077c-0.532-0.27-1.105-0.405-1.72-0.405h-6.768V25.386z"
			/>
		<path fill="#FFFFFF" d="M178.833,32.908v1.287h-13.228V14.339h12.976v1.287h-11.55v7.802h10.096v1.23h-10.096v8.25H178.833z"/>
		<path fill="#FFFFFF" d="M200.199,34.195V17.891l-7.243,12.612h-1.146l-7.243-12.612v16.304h-1.958V14.339h2.014l7.747,13.591
			l7.802-13.591h1.985v19.855H200.199z"/>
		<path fill="#FFFFFF" d="M207.134,34.195V14.339h1.958v19.855H207.134z"/>
		<path fill="#FFFFFF" d="M216.026,17.975v16.22h-1.958V14.339h1.51l13.144,16.528v-16.5h1.958v19.828h-1.706L216.026,17.975z"/>
		<path fill="#FFFFFF" d="M248.998,32.461v1.734h-13.34V14.339h13.088v1.734h-11.13v7.159h9.704v1.65h-9.704v7.579H248.998z"/>
	</g>
</g>
</svg>
