<svg xmlns="http://www.w3.org/2000/svg" width="187.35" height="44.399" viewBox="0 0 187.35 44.399"><defs><style>.a{fill:#d73240;}.b{fill:#212934;}.c{fill:rgba(255,255,255,0);}</style></defs><g transform="translate(0 0)"><g transform="translate(8.129 5.628)"><path class="a" d="M31.717,6.452l-.053-.019-.01-.056L31.623,6.3a.315.315,0,0,0-.123-.118L17.123.028,17.046,0h-.1L16.77.042,3,9.155l-.085.07-.073.12c-.01.022-.021.042-.051.11L.019,20.214.01,20.3A.7.7,0,0,0,0,20.408v.024l.006.025s.022.085.04.13L9.393,31.872l.081.071c.083.055.125.06.117.057l.624.138-.072-.072,13.212,1.483.1,0,.062-.008.072-.022-.07-.159.115.141.055-.035.1-.089,8.236-9.777,0,0,0,0h0L35.3,13.846l.019-.074s.008-.1.01-.123l0-.033Zm2.73,7.24-2.89,8.731L28.85,19.349l2.6-11.526ZM9.533,23.809l12.423,8.74-1.342-.231L9.9,31.114,1.742,21.29Zm-.414-1.093L.938,20.071l2.444-9.5,4.4,6.37Zm.907.135L8.639,16.887l7.817-8.2L30.736,7.1l-2.7,11.991ZM15.858,8.029,8.218,16.047,3.824,9.677,16.457,1.326ZM10.823,23.622l17.41-3.639,2.91,3.3L23.376,32.5Zm5.916-15.9.59-6.621,12.186,5.2Z"/><g transform="translate(39.442 9.963)"><path class="b" d="M315.367,93.457v-13.8h8.977v.894h-7.986v5.479h6.781v.855h-6.781v6.567h-.991Z" transform="translate(-315.367 -79.661)"/><path class="b" d="M416.841,92.563v.894H407.65v-13.8h9.016v.894h-8.025v5.421h7.015v.855h-7.015v5.732Z" transform="translate(-396.109 -79.661)"/><path class="b" d="M496.324,79.661h.855l5.83,13.8h-1.049l-1.924-4.547h-6.587l-1.924,4.547h-1.069Zm3.439,8.434-3.012-7.228-3.07,7.228Z" transform="translate(-468.558 -79.661)"/><path class="b" d="M607.045,80.555h-5.052v12.9H601v-12.9H595.95v-.894h11.095Z" transform="translate(-560.859 -79.661)"/><path class="b" d="M705.791,92.642a4.653,4.653,0,0,0,2.322-.525,4.044,4.044,0,0,0,1.458-1.379,5.836,5.836,0,0,0,.757-1.943,10.9,10.9,0,0,0,.224-2.2V79.662h.991V86.6a11.36,11.36,0,0,1-.3,2.642,6.378,6.378,0,0,1-.981,2.225,4.874,4.874,0,0,1-1.768,1.525,6.69,6.69,0,0,1-5.44-.029,4.923,4.923,0,0,1-1.778-1.574,6.4,6.4,0,0,1-.952-2.225,11.536,11.536,0,0,1-.282-2.565V79.661h.991V86.6a11.048,11.048,0,0,0,.224,2.235,5.5,5.5,0,0,0,.777,1.934,4.179,4.179,0,0,0,1.467,1.36A4.626,4.626,0,0,0,705.791,92.642Z" transform="translate(-651.93 -79.661)"/><path class="b" d="M819.2,93.457v-13.8h5.732a3.558,3.558,0,0,1,1.613.369,4.12,4.12,0,0,1,1.273.982,4.691,4.691,0,0,1,.836,1.379,4.2,4.2,0,0,1,.3,1.545,4.679,4.679,0,0,1-.233,1.467,4.318,4.318,0,0,1-.661,1.273,3.726,3.726,0,0,1-1.03.932,3.614,3.614,0,0,1-1.321.486l3.439,5.363H828l-3.342-5.208h-4.469v5.208H819.2Zm.991-6.121h4.838a2.515,2.515,0,0,0,1.2-.291,3.043,3.043,0,0,0,.932-.767,3.411,3.411,0,0,0,.593-1.088,3.93,3.93,0,0,0,.2-1.253,3.427,3.427,0,0,0-.243-1.273,3.584,3.584,0,0,0-.661-1.078,3.327,3.327,0,0,0-.971-.748,2.6,2.6,0,0,0-1.2-.281h-4.7v6.781Z" transform="translate(-756.188 -79.661)"/><path class="b" d="M929.219,92.563v.894h-9.191v-13.8h9.016v.894h-8.025v5.421h7.015v.855h-7.015v5.732Z" transform="translate(-844.406 -79.661)"/><path class="b" d="M1026.717,93.457V82.129l-5.033,8.763h-.8l-5.033-8.763V93.457h-1.36v-13.8h1.4l5.383,9.443,5.421-9.443h1.379v13.8h-1.36Z" transform="translate(-927.058 -79.661)"/><path class="b" d="M1150.745,93.457v-13.8h1.36v13.8h-1.36Z" transform="translate(-1046.267 -79.661)"/><path class="b" d="M1190.628,82.188v11.27h-1.36v-13.8h1.049l9.133,11.484V79.681h1.36V93.457h-1.185Z" transform="translate(-1079.972 -79.661)"/><path class="b" d="M1318.481,92.253v1.2h-9.269v-13.8h9.094v1.2h-7.733V85.84h6.742v1.146h-6.742v5.266Z" transform="translate(-1184.915 -79.661)"/></g></g><rect class="c" width="187.35" height="44.399"/></g></svg>